<svg width="60" height="90" viewBox="0 0 60 90" fill="none" xmlns="http://www.w3.org/2000/svg">
<path fill-rule="evenodd" clip-rule="evenodd" d="M44.6714 49.5662L44.8041 49.6105L44.9369 49.6547L45.0697 49.699L45.1582 49.7432L45.2909 49.7875L45.3794 49.876L45.468 49.9203L45.5565 49.9645L45.645 50.0088L45.7335 50.0973L45.822 50.1415L45.9105 50.2301L45.999 50.2743L46.0875 50.3628L46.1318 50.4513L46.2203 50.4956L46.2646 50.5841L46.3531 50.6726L46.3973 50.7611L46.4858 50.8496L46.5301 50.9381L46.5743 51.0267L46.6629 51.1152L46.7071 51.2037L46.7514 51.2922L46.7956 51.3807L46.8841 51.4692L46.9284 51.5577L46.9726 51.6905L47.0612 51.779L47.1054 51.8675L47.1939 52.0003L47.2382 52.0888L47.2824 52.2216L47.3709 52.3101L47.4595 52.4428L47.5037 52.5313L47.5922 52.6641L47.6807 52.7526L47.7692 52.8854C47.8135 52.9739 47.8578 53.0624 47.9463 53.1067L48.0348 53.2394L48.1233 53.3722L48.2118 53.505L48.3446 53.5935L48.4331 53.7262L48.5658 53.859L48.6544 53.9918L48.7871 54.1245L48.9199 54.2573L49.0969 54.3901L49.2297 54.5228L49.3624 54.6556L49.5395 54.7884L49.7165 54.9211L49.8935 55.0539L50.0705 55.1867L50.2476 55.3194L50.4688 55.4522L50.6459 55.585L50.8671 55.7177L51.0884 55.8505L51.3539 55.9833C51.3539 56.116 51.3539 56.2046 51.3539 56.2931C51.3539 56.3816 51.3539 56.4701 51.3982 56.5586C51.3982 56.6471 51.3982 56.7356 51.3982 56.8241C51.3982 56.9569 51.3982 57.0454 51.3982 57.1339C51.3982 57.2224 51.3539 57.3109 51.3539 57.3995C51.3539 57.488 51.3539 57.5765 51.3539 57.665C51.3539 57.7535 51.3097 57.8863 51.3097 57.9748C51.3097 58.0633 51.3097 58.1518 51.2654 58.2403C51.2654 58.3288 51.2654 58.4173 51.2212 58.5058C51.2212 58.5944 51.2212 58.6829 51.1769 58.7714C51.1769 58.9041 51.1327 58.9927 51.1327 59.0812L51.0442 59.3467L50.9556 59.6122L50.8671 59.8778L50.7786 60.1433C50.7786 60.2318 50.7344 60.3203 50.6901 60.4088L50.6016 60.6744L50.4688 60.9399L50.3803 61.2054L50.2476 61.471L50.1148 61.7365L49.982 62.002L49.8493 62.2676L49.7165 62.5331L49.5395 62.7544L49.4067 63.0199L49.2297 63.2412V63.2854L49.0969 63.5067L48.9199 63.7723L48.7429 63.9935L48.6101 64.2148L48.4331 64.4803L48.2561 64.7016L48.079 64.9229L47.8578 65.1442L47.6807 65.3655L47.5037 65.5867L47.3267 65.808L47.1497 66.0293L46.9284 66.2506L46.7514 66.4276L46.5743 66.6489L46.3531 66.8259L46.176 67.0472L45.999 67.2242L45.7777 67.4012L45.6007 67.6225L45.4237 67.7995L45.2024 67.9765L45.0254 68.1093L44.8484 68.2863L44.6714 68.4633L44.4943 68.5961L44.2731 68.7731L44.096 68.9059L43.919 69.0829L43.742 69.2157L43.565 69.3485L43.4322 69.4812L43.2552 69.5697L43.0782 69.7025L42.9454 69.8353L42.7684 69.9238L42.6356 70.0123L42.5028 70.1008L42.4143 70.1893L42.2816 70.2778L42.1045 70.3663L41.9718 70.4548L41.7947 70.5434L41.6177 70.6319L41.4407 70.7646L41.2194 70.8531L41.0424 70.9859L40.8211 71.1187L40.5998 71.2514L40.3343 71.3842L40.113 71.517L39.8475 71.6497L39.582 71.7825L39.3164 71.9153L39.0509 72.048L38.7854 72.1808L38.4756 72.3578L38.21 72.4906L37.9003 72.6234L37.5905 72.8004L37.2807 72.9332L36.9709 73.0659L36.6611 73.243L36.3513 73.3757L36.0415 73.5085L35.7317 73.6413L35.3777 73.8183L35.0679 73.951L34.7581 74.0838L34.4041 74.2166L34.0943 74.3493L33.7402 74.4821L33.4304 74.6149L33.1207 74.7034L32.7666 74.8362L32.4568 74.9689L32.147 75.0574L31.793 75.1459L31.4832 75.2787L31.1734 75.3672L30.8636 75.4557L30.5538 75.5442L30.244 75.5885L29.9343 75.677L29.6687 75.7213L29.3589 75.8098L29.0934 75.854H28.8279C28.7394 75.8983 28.6066 75.8983 28.5181 75.8983C28.4296 75.8983 28.3853 75.9425 28.2968 75.9425C28.2083 75.9425 28.1198 75.9425 28.0313 75.9425C27.9428 75.9425 27.8542 75.9425 27.7657 75.9425C27.6772 75.9425 27.633 75.9425 27.5445 75.9425C27.4559 75.9425 27.3674 75.9425 27.3232 75.9425C27.2347 75.9425 27.1462 75.8983 27.1019 75.8983C27.0134 75.8983 26.9249 75.8983 26.8806 75.8983V75.854C26.7921 75.854 26.7479 75.854 26.6593 75.854C26.6151 75.8098 26.5266 75.8098 26.4823 75.7655C26.3938 75.7655 26.3496 75.7213 26.3053 75.7213C26.2168 75.677 26.1725 75.677 26.1283 75.6328C26.0398 75.5885 25.9955 75.5885 25.9513 75.5442L25.9955 75.5V75.4557L26.0398 75.4115V75.3672V75.323L26.084 75.2787V75.2345V75.1902V75.1459V75.1017V75.0574H26.0398V75.0132H25.9955V74.9689H26.0398H26.084H26.1283L26.1725 74.9247H26.2168H26.261L26.3053 74.8804H26.3496L26.3938 74.8362H26.4381L26.5266 74.7919H26.5708L26.6151 74.7476H26.7036L26.7479 74.7034L26.8364 74.6591H26.9249L26.9691 74.6149H27.0134L27.0576 74.5706H27.1019H27.1462H27.1904L27.2347 74.5264H27.2789H27.3232H27.3674L27.4117 74.4821H27.5002H27.5445H27.5887H27.633L27.6772 74.4379H27.7657H27.81H27.8542H27.8985H27.987L28.0313 74.3936H28.0755H28.164H28.2083H28.2525H28.3411L28.3853 74.3493H28.4738H28.5181H28.5623H28.6508L28.6951 74.3051H28.7836H28.8279H28.9164L28.9606 74.2608H29.0491H29.0934H29.1819L29.2262 74.2166H29.3147H29.3589L29.4474 74.1723H29.4917H29.5802L29.6245 74.1281H29.713L29.7572 74.0838H29.8457H29.89L29.9343 74.0396H30.0228L30.067 73.9953L30.1555 73.951H30.1998L30.2883 73.9068H30.3326L30.4211 73.8625L30.4653 73.8183H30.5096L30.5981 73.774L30.6423 73.7298L30.5981 73.6855L30.5096 73.6413L30.4653 73.597L30.3768 73.5527L30.2883 73.5085L30.244 73.4642H30.1555L30.067 73.42H29.9785H29.89H29.8015L29.713 73.3757H29.6245H29.536L29.4032 73.42H29.3147H29.2262H29.0934L29.0049 73.4642H28.9164L28.7836 73.5085H28.6508L28.5623 73.5527L28.4296 73.597H28.2968L28.2083 73.6413L28.0755 73.6855H27.9428L27.81 73.7298L27.7215 73.774H27.5887L27.4559 73.8183L27.3232 73.8625L27.1904 73.9068H27.0576L26.9249 73.951L26.7921 73.9953L26.6593 74.0396H26.5266L26.3938 74.0838H26.261L26.1283 74.1281H25.9955L25.8627 74.1723H25.73L25.5972 74.2166H25.4644H25.3317H25.1989H25.0661H24.9334H24.8006H24.6678H24.4908L24.3581 74.1723H24.2253L24.1368 74.1281H24.004L23.8712 74.0838L23.7385 74.0396L23.6057 73.9953L23.4729 73.951L23.3402 73.9068L23.2074 73.8183L23.2517 73.774V73.7298L23.2959 73.6413L23.3402 73.597V73.5527L23.3844 73.5085L23.4287 73.4642V73.42L23.4729 73.3757L23.5172 73.3315V73.2872L23.5615 73.243L23.6057 73.1987L23.65 73.1544L23.6942 73.1102H23.7385V73.0659H23.7827L23.827 73.0217H23.8712L23.9155 72.9774H23.9598L24.004 72.9332H24.0483L24.0925 72.8889H24.1368H24.181H24.2253V72.8447H24.2695H24.3138H24.3581H24.4023H24.4908L24.5351 72.8004H24.5793H24.6236H24.6678H24.7121H24.8006H24.8449H24.8891H24.9776H25.0219L25.0661 72.7561H25.1547H25.1989H25.2874H25.3317H25.4202H25.4644H25.553H25.6415H25.6857H25.7742L25.8627 72.7119H25.907H25.9955H26.084H26.1725L26.261 72.6676H26.3496H26.4381H26.4823L26.5708 72.6234H26.6151H26.6593H26.7479H26.7921L26.8364 72.5791H26.9249H26.9691H27.0134H27.0576L27.1462 72.5349H27.1904H27.2347H27.2789L27.3232 72.4906H27.4117H27.4559H27.5002L27.5445 72.4464H27.5887H27.633H27.6772L27.7215 72.4021H27.7657H27.81H27.8542L27.8985 72.3578H27.9428H27.987L28.0313 72.3136H28.0755H28.1198L28.164 72.2693H28.2083L28.2525 72.2251H28.2968H28.3411L28.3853 72.1808H28.4296L28.4738 72.1366H28.5181L28.5623 72.0923H28.6066L28.6508 72.048H28.6951L28.7394 72.0038H28.7836L28.8279 71.9595H28.8721V71.9153L28.9164 71.871H28.9606L29.0049 71.8268H29.0491L29.0934 71.7825L29.1377 71.7383H29.1819L29.2262 71.694L29.2704 71.6497L29.3147 71.6055L29.3589 71.5612H29.3147L29.2704 71.517H29.2262L29.1819 71.4727H29.1377L29.0934 71.4285H29.0491L29.0049 71.3842H28.9164H28.8721H28.8279L28.7836 71.34H28.6951H28.6508H28.5623H28.5181H28.4738L28.3853 71.2957H28.3411H28.2525H28.2083H28.1198H28.0755H27.9428H27.8542H27.7657H27.7215H27.633L27.5887 71.34H27.5002H27.4117H27.3674H27.2789H27.1462L27.0576 71.3842H27.0134H26.9249H26.8364H26.7036L26.6593 71.4285H26.5708H26.4823H26.4381H26.3496L26.3053 71.4727H26.2168H26.1725H26.084H26.0398H25.9513L25.907 71.517H25.8627H25.7742H25.73H25.6857H25.5972H25.553L25.5087 71.5612H25.4644H25.3759H25.3317H25.1547H24.9776L24.8006 71.6055H24.6236H24.4466H24.3138H24.181H24.004H23.8712V71.6497H23.7385H23.6057H23.5172H23.3844H23.2959H23.1632H23.0746H22.9861H22.8091H22.7649L22.5436 71.6055H22.4551H22.4108H22.3223H22.278L22.1895 71.5612H22.1453H22.101V71.517H22.0568H22.0125L21.9683 71.4727L21.924 71.4285V71.3842H21.8797V71.34L21.8355 71.2957V71.2514V71.2072V71.1629H21.7912V71.1187V71.0744V71.0302L21.747 70.9859V70.9417L21.7027 70.8974V70.8531V70.8089L21.747 70.7204L21.7912 70.6761L21.8355 70.6319L21.8797 70.5876L21.924 70.5434L21.9683 70.4991V70.4548H22.0125L22.0568 70.4106L22.1453 70.3663L22.1895 70.3221H22.2338L22.278 70.2778L22.3223 70.2336H22.3666L22.4108 70.1893H22.4551L22.5436 70.1451H22.5878H22.6321L22.6763 70.1008H22.7649H22.8091L22.8534 70.0565H22.9419H22.9861H23.0746H23.1189L23.1632 70.0123H23.2517H23.3844H23.4287H23.5172H23.5615H23.65H23.7385H23.7827H23.8712H23.9155H24.004H24.0483H24.1368H24.2253H24.2695H24.3581H24.4466H24.4908H24.5793H24.6678H24.7121H24.8006H24.8891H24.9334H25.0219H25.1104H25.1547H25.2432H25.3317H25.4202H25.4644H25.553H25.6415H25.6857H25.73H25.7742H25.8185H25.8627H25.907H25.9513H25.9955H26.0398L26.084 69.968H26.1283H26.1725H26.2168H26.261H26.3053H26.3496H26.3938H26.4381H26.4823H26.5266H26.5708H26.6593V69.9238H26.7036H26.7479H26.7921H26.8364H26.8806H26.9249H26.9691H27.0134H27.0576L27.1019 69.8795H27.1462H27.1904H27.2347H27.2789H27.3232L27.3674 69.8353H27.4117H27.4559H27.5002L28.0755 69.5255L28.9606 69.0387L28.8279 68.9944L28.7394 68.9502L28.6066 68.9059L28.5181 68.8616H28.3853L28.2525 68.8174L28.1198 68.7731H28.0313L27.8985 68.7289H27.7657L27.633 68.6846H27.5445L27.4117 68.6404H27.2789H27.1462L27.0134 68.5961H26.8806H26.7479L26.6593 68.5519H26.5266H26.3938H26.261H26.1283L25.9955 68.5076H25.8627H25.7742H25.6415L25.5087 68.4633H25.3759H25.2874H25.1547L25.0219 68.4191H24.9334H24.8006L24.7121 68.3748H24.5793L24.4908 68.3306H24.3581H24.2695V68.2863H24.1368L24.0483 68.2421H23.9598L23.8712 68.1978L23.7827 68.1536H23.6942L23.6057 68.1093L23.5172 68.065L23.4287 68.0208L23.3402 67.9765L23.2517 67.9323L23.2074 67.888L23.1189 67.7995L23.0746 67.7553L22.9861 67.711L22.9419 67.6225L22.8976 67.5782L22.8091 67.4897L22.7649 67.4012L22.7206 67.3127V67.2242L22.6763 67.1357L22.6321 67.0472L22.5878 66.9587V66.8701L22.6763 66.8259L22.7206 66.7816H22.8091L22.8976 66.7374H22.9861L23.0304 66.6931H23.1189L23.2074 66.6489H23.2959H23.4287H23.5172H23.6057H23.6942H23.7827H23.9155H24.004H24.0925H24.2253H24.3138H24.4466L24.5351 66.6931H24.6678H24.8006H24.8891L25.0219 66.7374H25.1547H25.2432L25.3759 66.7816H25.5087H25.6415L25.7742 66.8259H25.907L26.0398 66.8701H26.1725H26.3053L26.4381 66.9144H26.5708H26.7036L26.8364 66.9587H26.9691H27.1019L27.2347 67.0029H27.3674H27.5002H27.6772L27.81 67.0472H27.9428H28.0755H28.2525H28.3853H28.5181H28.6508H28.8279H28.9606H29.0934H29.2262L29.4032 67.0029H29.536H29.6687L29.8457 66.9587H29.9785L30.1113 66.9144L30.244 66.8701H30.4211L30.4653 66.8259H30.5096H30.5981H30.6423L30.6866 66.7816H30.7309H30.7751H30.8636L30.9079 66.7374H30.9521H30.9964L31.0406 66.6931H31.0849H31.1292H31.1734V66.6489H31.2177H31.2619L31.3062 66.6046H31.3504H31.3947V66.5604H31.4389L31.4832 66.5161H31.5275V66.4718H31.5717V66.4276H31.616V66.3833L31.6602 66.3391V66.2948V66.2506H31.7045V66.2063V66.1621H31.7487V66.1178V66.0735L31.793 66.0293V65.985L31.8372 65.8965V65.8523L31.8815 65.808V65.7638L31.793 65.7195L31.7045 65.6752L31.6602 65.631L31.5717 65.5867L31.4832 65.5425L31.3947 65.4982L31.3062 65.454L31.2177 65.4097H31.1292L31.0406 65.3655H30.9079L30.8194 65.3212H30.7309L30.6423 65.2769H30.5538H30.4653L30.3768 65.2327H30.244H30.1555H30.067L29.9785 65.1884H29.89H29.7572H29.6687H29.5802H29.4917L29.4032 65.1442H29.3147H29.2262H29.0934H29.0049L28.9164 65.0999H28.8279H28.7394L28.6951 65.0557H28.6066L28.5181 65.0114H28.4296L28.3411 64.9672H28.2968L28.2083 64.9229L28.1198 64.8786H28.0755L27.987 64.8344C27.9428 64.7901 27.8985 64.7459 27.8542 64.7459L27.81 64.6574L27.7657 64.6131L27.7215 64.5689L27.6772 64.5246L27.5887 64.4361V64.3476L27.5445 64.3033L27.5002 64.2148L27.4559 64.1263C27.4559 64.082 27.4117 63.9935 27.4117 63.9493L27.3674 63.8165C27.3674 63.7723 27.3674 63.6838 27.3674 63.5952V63.4625V63.374V63.2412V63.0642H27.4117H27.4559H27.5002H27.5445H27.633H27.6772H27.7657H27.8542H27.9428H28.164H28.2525L28.5181 63.1084H28.6508H28.8721H29.0491V63.1527H29.1819H29.3147L29.6245 63.1969H29.9343L30.067 63.2412H30.244H30.4211L31.0849 63.3297H31.2619H31.3947L31.5717 63.374H31.7487H31.9258L32.1028 63.4182L32.4568 63.4625H32.5896H32.7666L32.9436 63.5067H33.1207L33.4304 63.551H33.7402L33.9173 63.5952H34.05H34.1828H34.3598L34.4926 63.6395H34.6253H34.7581H34.8909H35.0236L35.1122 63.6838H35.2449H35.3777H35.4662H35.5547H35.7317H35.8202L35.953 63.6395L36.0415 63.551L36.13 63.5067L36.2185 63.4182L36.3513 63.374L36.4398 63.2854L36.5283 63.2412V63.1969L36.6168 63.1527L36.7496 63.0642L36.8381 63.0199V62.9757L36.9266 62.9314L37.0151 62.8429L37.1037 62.7544L37.1922 62.6659L37.3249 62.6216L37.4134 62.5331L37.502 62.4446L37.5905 62.3561L37.679 62.2676L37.7675 62.1791L37.856 62.0905L37.9445 62.002L38.033 61.9135L38.1215 61.825L38.21 61.7365L38.2986 61.648L38.3871 61.5595L38.4756 61.4267L38.5641 61.3382L38.6083 61.2497L38.6969 61.1612L38.7854 61.0727L38.8739 60.9399L38.9624 60.8514L39.0509 60.7629L39.0952 60.6301L39.1837 60.5416L39.2722 60.4531L39.3607 60.3203L39.4049 60.2318L39.4935 60.1433L39.582 60.0105L39.6262 59.922L39.7147 59.7893L39.8032 59.7007L39.8475 59.6122L39.936 59.4795L39.9803 59.391L40.0688 59.2582L40.1573 59.1697L40.2015 59.0369L40.2901 58.9484L40.3343 58.8156L40.4228 58.7271L40.4671 58.5944L40.5113 58.4616L40.5998 58.3731L40.6441 58.2403L40.7326 58.1518L40.7769 58.019L40.8211 57.9305L40.9096 57.7978L40.9539 57.665L40.9981 57.5765L41.0867 57.3995L41.1752 57.2667L41.2194 57.1339L41.3079 56.9569L41.3964 56.8241L41.4407 56.6471L41.5292 56.5143L41.5735 56.3373L41.662 56.1603L41.7062 56.0275L41.7947 55.8505L41.839 55.7177L41.8833 55.5407L41.9718 55.408L42.016 55.2309L42.0603 55.0982L42.1045 54.9654L42.193 54.7884L42.2373 54.6556L42.2816 54.4786L42.3258 54.3458L42.3701 54.1688L42.4143 54.036L42.4586 53.9033L42.5028 53.7705L42.5471 53.5935L42.5913 53.4607L42.6356 53.3279L42.6799 53.1952L42.7241 53.0624L42.7684 52.8854L42.8126 52.7526L42.8569 52.6199L42.9011 52.4871L42.9454 52.3543L42.9896 52.2658V52.133L43.0339 52.0003L43.0782 51.8675L43.1224 51.779V51.6462L43.1667 51.5135L43.2109 51.425V51.2922L43.2552 51.2037L43.2994 51.1152V51.0267L43.3437 50.8939L43.3879 50.8054V50.7169L43.4322 50.6284V50.5398L43.4765 50.4956V50.4071L43.5207 50.3186V50.2743L43.565 50.1858V50.1415L43.6092 50.053V50.0088L43.6535 49.9645V49.9203V49.876L43.6977 49.8318C47.8578 15.8435 28.5181 27.2172 36.7496 0C32.7666 0.575322 22.8976 9.24941 19.8882 12.5243C14.9759 17.9235 11.3912 22.6146 7.45243 30.138C0.504306 43.5032 -3.30167 63.8608 6.25753 76.8719C14.5333 88.0686 32.8109 94.9282 47.8578 83.5987C53.0357 79.7043 57.594 73.6855 59.1872 64.9229C60.3378 58.5058 59.6297 51.425 57.1957 45.4947C56.8416 44.5653 56.4433 43.7687 56.0893 42.9721C54.8059 40.3168 55.1599 41.0692 54.2748 40.6709C53.2127 42.7509 56.0893 44.1228 55.0272 45.716C53.4782 43.8573 53.5667 39.8743 51.0442 39.4317C50.8671 40.8479 51.531 41.4232 52.1063 42.6181C52.7259 43.9458 53.1684 45.0079 52.4603 45.8045L49.628 40.7594C48.6986 39.476 49.2739 39.7415 47.7692 39.6972C47.7692 42.1755 50.5131 43.6802 50.6901 46.8666C48.7429 45.6275 48.079 42.6624 45.3794 42.3968C44.8484 44.6981 50.7786 47.7517 49.5837 50.9381C47.0169 50.5841 48.7871 48.0173 44.8041 48.3713L44.6714 49.5662ZM28.0313 75.9425C27.9428 75.9425 27.8542 75.9425 27.7657 75.9425H28.0313Z" fill="#EC4653"/>
<path fill-rule="evenodd" clip-rule="evenodd" d="M30.9521 5.5762C27.2789 6.99238 20.198 15.4009 17.6312 18.9856C16.5691 20.4461 6.78857 34.3866 9.08986 36.4223C10.8601 38.0155 12.409 32.6163 14.0907 29.2087C20.8176 15.4894 30.2883 7.1694 30.9521 5.5762Z" fill="#EC4653"/>
<path fill-rule="evenodd" clip-rule="evenodd" d="M7.80647 38.4138C6.8771 38.9006 6.39029 41.0249 5.99199 42.4411C5.54943 44.1228 5.2839 47.1764 7.89498 46.2913C9.31116 45.8045 11.3469 36.5993 7.80647 38.4138Z" fill="#EC4653"/>
</svg>
